# xmcd
#
# Track frame offsets:
#	150
#	11797
#	22917
#	34952
#	46267
#	59480
#	71172
#	83415
#	96290
#	110072
#	122972
#	134405
#	144212
#	154610
#	166152
#	176425
#	190435
#	202047
#	211337
#	224307
#	233140
#	246027
#	257107
#	267737
#	280615
#	292280
#	304032
#	313670
#	322892
#	334792
#
# Disc length: 4610 seconds
#
# Revision: 1
# Processed by: cddbd v1.4PL0 Copyright (c) Steve Scherf et al.
# Submitted via: audiograbber 1.82.02
#
DISCID=c512001e
DTITLE=Various Artist - Bump Jump Jive Vol. 9
DYEAR=1900
DGENRE=R&B
TTITLE0=Paul Bascomb - Mumble Blues
TTITLE1=King Porter - Chitlin' Ball
TTITLE2=Bobby Merrill - I Ain't Mad At You
TTITLE3=Roy Brown - Swingin' With Johnny
TTITLE4=Big Jay McNeely - All That Wine Is Gone
TTITLE5=Faye Simmons - Whim Wham Whop
TTITLE6=Big Jow Turner - Morning, Noon and Night
TTITLE7=Amos Milburn - Chicken Shack Boogie
TTITLE8=Louis Jordan - Have You Got The Gumptions
TTITLE9=Fatso and Flaire - Drive In Rock 'N' Roll
TTITLE10=Roy Brown - Butcher Pete
TTITLE11=Bobby Mitchell and The Toppers - 4x11=44
TTITLE12=The Isley Brothers - I Wanna Know
TTITLE13=Champion Jack Dupree - Rub A Little Boogie
TTITLE14=Arthur Lee Maye and  The Crowns - That's What's I'm Gonna Do
TTITLE15=Julian Dash - Coolin' With Dash
TTITLE16=Waymon Brown - The Six Hundred Block
TTITLE17=Etta James - That's All
TTITLE18=Babs Gonzales - Ooh-Pa-Pa-Dah
TTITLE19=Big Joe Turner - Love Roller Coaster
TTITLE20=Little Esther - T'aint What You Say
TTITLE21=Chuz Alfred - Rockin' Boy
TTITLE22=Clyde McPhatter - Deep Sea Ball
TTITLE23=Shirlley And Lee - Feel So Fine
TTITLE24=Nappy Brown - Little By Little
TTITLE25=Ella Mae Morse - Money Honey
TTITLE26=Ruth Brown - Licky Lips
TTITLE27=Bullmoose Jackson - Watch My Signals
TTITLE28=Joe Tex - Just You And Me
TTITLE29=Smiley Lewis - One Night
EXTD=
EXTT0=
EXTT1=
EXTT2=
EXTT3=
EXTT4=
EXTT5=
EXTT6=
EXTT7=
EXTT8=
EXTT9=
EXTT10=
EXTT11=
EXTT12=
EXTT13=
EXTT14=
EXTT15=
EXTT16=
EXTT17=
EXTT18=
EXTT19=
EXTT20=
EXTT21=
EXTT22=
EXTT23=
EXTT24=
EXTT25=
EXTT26=
EXTT27=
EXTT28=
EXTT29=
PLAYORDER=
